<svg width="18" height="24" viewBox="0 0 18 24" fill="none" xmlns="http://www.w3.org/2000/svg">
<path d="M17.4249 0.51123V22.8979H14.3515V20.4531C13.1641 21.9549 11.348 23.282 8.48418 23.282C3.83922 23.282 0.870636 19.615 0.870636 15.1795C0.870636 10.779 3.83922 7.07704 8.48418 7.07704C11.1734 7.07704 12.9545 8.26448 14.0023 9.48683V0.51123H17.4249ZM9.0779 10.1504C6.31886 10.1504 4.32816 12.2109 4.32816 15.2494C4.32816 18.2529 6.35379 20.3134 9.0779 20.3134C11.4877 20.3134 13.2339 18.7768 13.9673 17.1004V13.3635C13.2339 11.6871 11.4877 10.1504 9.0779 10.1504Z" fill="black"/>
</svg>
