<svg width="17" height="17" viewBox="0 0 17 17" fill="none" xmlns="http://www.w3.org/2000/svg">
<path d="M15.4257 13.4881C15.775 13.4881 16.1242 13.3834 16.4385 13.3135V15.7582C15.8099 16.0027 15.0415 16.1424 14.2732 16.1424C12.8762 16.1424 11.7586 15.5836 11.1998 14.3612C9.69808 15.5836 7.81216 16.3519 5.40236 16.3519C2.6084 16.3519 0.0239868 14.8153 0.0239868 11.6371C0.0239868 7.69066 3.65614 6.50323 6.8692 6.50323C8.19633 6.50323 9.66316 6.67785 10.8506 6.95725V6.39845C10.8506 4.4776 9.45361 3.15047 6.83427 3.15047C4.56418 3.15047 2.67826 3.70926 1.3162 4.33791V1.1947C2.53856 0.775602 4.7388 0.181885 7.18352 0.181885C11.5142 0.181885 14.2732 2.24243 14.2732 6.8874V12.3705C14.3081 13.2087 14.832 13.4881 15.4257 13.4881ZM3.58629 11.3927C3.58629 12.8944 4.91342 13.6628 6.4501 13.6628C8.09155 13.6628 9.66316 13.069 10.8855 11.8467V9.26227C9.94256 9.08764 8.65035 8.87809 7.56769 8.87809C5.61192 8.87809 3.58629 9.47181 3.58629 11.3927Z" fill="black"/>
</svg>
